<mxfile host="app.diagrams.net" modified="2023-02-09T03:04:56.631Z" agent="5.0 (X11)" etag="iQN-c4MxrheELSv9tWV7" version="20.8.18" type="github">
  <diagram name="Page-1" id="7do3moqAXUZgqibAmd3p">
    <mxGraphModel dx="1807" dy="811" grid="1" gridSize="10" guides="1" tooltips="1" connect="1" arrows="1" fold="1" page="1" pageScale="1" pageWidth="850" pageHeight="1100" math="0" shadow="0">
      <root>
        <mxCell id="0" />
        <mxCell id="1" parent="0" />
        <mxCell id="nH537nRAI2q6Qc75x47s-1" value="" style="rounded=0;whiteSpace=wrap;html=1;fontFamily=Helvetica;fontSize=19;" vertex="1" parent="1">
          <mxGeometry x="-20" y="580" width="840" height="750" as="geometry" />
        </mxCell>
        <mxCell id="nH537nRAI2q6Qc75x47s-2" value="Usecase - Manage User" style="text;html=1;strokeColor=none;fillColor=none;align=center;verticalAlign=middle;whiteSpace=wrap;rounded=0;fontSize=19;fontFamily=Helvetica;" vertex="1" parent="1">
          <mxGeometry x="260" y="590" width="270" height="30" as="geometry" />
        </mxCell>
        <mxCell id="nH537nRAI2q6Qc75x47s-3" value="Manage User" style="ellipse;whiteSpace=wrap;html=1;fontFamily=Helvetica;fontSize=19;" vertex="1" parent="1">
          <mxGeometry x="360" y="830" width="120" height="80" as="geometry" />
        </mxCell>
        <mxCell id="nH537nRAI2q6Qc75x47s-4" value="extends" style="edgeStyle=none;rounded=0;orthogonalLoop=1;jettySize=auto;html=1;fontFamily=Helvetica;fontSize=12;dashed=1;dashPattern=8 8;" edge="1" parent="1" source="nH537nRAI2q6Qc75x47s-5" target="nH537nRAI2q6Qc75x47s-3">
          <mxGeometry relative="1" as="geometry" />
        </mxCell>
        <mxCell id="nH537nRAI2q6Qc75x47s-5" value="Search / sort User" style="ellipse;whiteSpace=wrap;html=1;fontFamily=Helvetica;fontSize=19;" vertex="1" parent="1">
          <mxGeometry x="370" y="650" width="120" height="80" as="geometry" />
        </mxCell>
        <mxCell id="nH537nRAI2q6Qc75x47s-6" value="extends" style="edgeStyle=none;rounded=0;orthogonalLoop=1;jettySize=auto;html=1;dashed=1;dashPattern=8 8;fontFamily=Helvetica;fontSize=12;" edge="1" parent="1" source="nH537nRAI2q6Qc75x47s-7" target="nH537nRAI2q6Qc75x47s-3">
          <mxGeometry relative="1" as="geometry" />
        </mxCell>
        <mxCell id="nH537nRAI2q6Qc75x47s-7" value="Display User detail infomation" style="ellipse;whiteSpace=wrap;html=1;fontFamily=Helvetica;fontSize=18;" vertex="1" parent="1">
          <mxGeometry x="450" y="980" width="120" height="80" as="geometry" />
        </mxCell>
        <mxCell id="nH537nRAI2q6Qc75x47s-8" value="extends" style="rounded=0;orthogonalLoop=1;jettySize=auto;html=1;dashed=1;" edge="1" parent="1" source="nH537nRAI2q6Qc75x47s-9" target="nH537nRAI2q6Qc75x47s-3">
          <mxGeometry relative="1" as="geometry" />
        </mxCell>
        <mxCell id="nH537nRAI2q6Qc75x47s-9" value="&lt;div&gt;List User&lt;/div&gt;" style="ellipse;whiteSpace=wrap;html=1;fontFamily=Helvetica;fontSize=19;" vertex="1" parent="1">
          <mxGeometry x="120" y="670" width="120" height="80" as="geometry" />
        </mxCell>
        <mxCell id="nH537nRAI2q6Qc75x47s-10" value="extends" style="edgeStyle=none;rounded=0;orthogonalLoop=1;jettySize=auto;html=1;dashed=1;" edge="1" parent="1" source="nH537nRAI2q6Qc75x47s-11" target="nH537nRAI2q6Qc75x47s-3">
          <mxGeometry relative="1" as="geometry" />
        </mxCell>
        <mxCell id="nH537nRAI2q6Qc75x47s-11" value="Add User" style="ellipse;whiteSpace=wrap;html=1;fontFamily=Helvetica;fontSize=19;" vertex="1" parent="1">
          <mxGeometry x="620" y="720" width="120" height="80" as="geometry" />
        </mxCell>
        <mxCell id="nH537nRAI2q6Qc75x47s-12" value="extends" style="edgeStyle=none;rounded=0;orthogonalLoop=1;jettySize=auto;html=1;dashed=1;" edge="1" parent="1" source="nH537nRAI2q6Qc75x47s-13" target="nH537nRAI2q6Qc75x47s-7">
          <mxGeometry relative="1" as="geometry" />
        </mxCell>
        <mxCell id="nH537nRAI2q6Qc75x47s-13" value="Activate /Deactivate User " style="ellipse;whiteSpace=wrap;html=1;fontFamily=Helvetica;fontSize=19;" vertex="1" parent="1">
          <mxGeometry x="660" y="915" width="120" height="80" as="geometry" />
        </mxCell>
        <mxCell id="nH537nRAI2q6Qc75x47s-14" value="extends" style="edgeStyle=none;rounded=0;orthogonalLoop=1;jettySize=auto;html=1;dashed=1;" edge="1" parent="1" source="nH537nRAI2q6Qc75x47s-15" target="nH537nRAI2q6Qc75x47s-3">
          <mxGeometry relative="1" as="geometry" />
        </mxCell>
        <mxCell id="nH537nRAI2q6Qc75x47s-15" value="&lt;div&gt;Send email to User&lt;/div&gt;" style="ellipse;whiteSpace=wrap;html=1;fontFamily=Helvetica;fontSize=19;" vertex="1" parent="1">
          <mxGeometry x="20" y="900" width="120" height="80" as="geometry" />
        </mxCell>
        <mxCell id="nH537nRAI2q6Qc75x47s-16" value="extends" style="edgeStyle=none;rounded=0;orthogonalLoop=1;jettySize=auto;html=1;entryX=1;entryY=1;entryDx=0;entryDy=0;dashed=1;" edge="1" parent="1" source="nH537nRAI2q6Qc75x47s-17" target="nH537nRAI2q6Qc75x47s-7">
          <mxGeometry relative="1" as="geometry" />
        </mxCell>
        <mxCell id="nH537nRAI2q6Qc75x47s-17" value="Update User Profile" style="ellipse;whiteSpace=wrap;html=1;fontFamily=Helvetica;fontSize=18;" vertex="1" parent="1">
          <mxGeometry x="670" y="1090" width="120" height="80" as="geometry" />
        </mxCell>
        <mxCell id="nH537nRAI2q6Qc75x47s-18" value="extends" style="edgeStyle=none;rounded=0;orthogonalLoop=1;jettySize=auto;html=1;dashed=1;" edge="1" parent="1" source="nH537nRAI2q6Qc75x47s-19" target="nH537nRAI2q6Qc75x47s-7">
          <mxGeometry relative="1" as="geometry" />
        </mxCell>
        <mxCell id="nH537nRAI2q6Qc75x47s-19" value="Change User avatar" style="ellipse;whiteSpace=wrap;html=1;fontFamily=Helvetica;fontSize=18;" vertex="1" parent="1">
          <mxGeometry x="510" y="1190" width="120" height="80" as="geometry" />
        </mxCell>
        <mxCell id="nH537nRAI2q6Qc75x47s-20" value="extends" style="edgeStyle=none;rounded=0;orthogonalLoop=1;jettySize=auto;html=1;dashed=1;" edge="1" parent="1" source="nH537nRAI2q6Qc75x47s-21" target="nH537nRAI2q6Qc75x47s-3">
          <mxGeometry relative="1" as="geometry" />
        </mxCell>
        <mxCell id="nH537nRAI2q6Qc75x47s-21" value="Display User&#39;s Account" style="ellipse;whiteSpace=wrap;html=1;fontFamily=Helvetica;fontSize=19;" vertex="1" parent="1">
          <mxGeometry x="260" y="970" width="120" height="80" as="geometry" />
        </mxCell>
        <mxCell id="nH537nRAI2q6Qc75x47s-22" value="extends" style="edgeStyle=none;rounded=0;orthogonalLoop=1;jettySize=auto;html=1;dashed=1;" edge="1" parent="1" source="nH537nRAI2q6Qc75x47s-23" target="nH537nRAI2q6Qc75x47s-21">
          <mxGeometry relative="1" as="geometry" />
        </mxCell>
        <mxCell id="nH537nRAI2q6Qc75x47s-23" value="Remove User from Account" style="ellipse;whiteSpace=wrap;html=1;fontFamily=Helvetica;fontSize=19;" vertex="1" parent="1">
          <mxGeometry x="110" y="1120" width="120" height="80" as="geometry" />
        </mxCell>
      </root>
    </mxGraphModel>
  </diagram>
</mxfile>
